<mxfile host="app.diagrams.net" modified="2021-04-14T12:48:49.065Z" agent="5.0 (Macintosh; Intel Mac OS X 10_13_4) AppleWebKit/537.36 (KHTML, like Gecko) Chrome/89.0.4389.90 Safari/537.36" etag="uajTwAPuzKEgvK3e703u" version="14.5.10" type="github">
  <diagram id="lWjOg6cp8KSraKorUpdm" name="Page-1">
    <mxGraphModel dx="1426" dy="794" grid="1" gridSize="10" guides="1" tooltips="1" connect="1" arrows="1" fold="1" page="1" pageScale="1" pageWidth="827" pageHeight="1169" math="0" shadow="0">
      <root>
        <mxCell id="0" />
        <mxCell id="1" parent="0" />
        <mxCell id="4Kp6o3HMMt4SV7lr1U1g-1" value="" style="rounded=0;whiteSpace=wrap;html=1;dashed=1;" parent="1" vertex="1">
          <mxGeometry x="50" y="40" width="170" height="290" as="geometry" />
        </mxCell>
        <mxCell id="4Kp6o3HMMt4SV7lr1U1g-6" value="&lt;b&gt;&lt;font style=&quot;font-size: 12px&quot;&gt;主线程&lt;/font&gt;&lt;/b&gt;" style="rounded=0;whiteSpace=wrap;html=1;dashed=1;strokeWidth=1;shadow=0;strokeColor=none;" parent="1" vertex="1">
          <mxGeometry x="105" y="20" width="60" height="40" as="geometry" />
        </mxCell>
        <mxCell id="Mn85AuaeQ5H_NYyy6468-4" style="edgeStyle=orthogonalEdgeStyle;rounded=0;orthogonalLoop=1;jettySize=auto;html=1;" edge="1" parent="1" source="4Kp6o3HMMt4SV7lr1U1g-7" target="4Kp6o3HMMt4SV7lr1U1g-8">
          <mxGeometry relative="1" as="geometry" />
        </mxCell>
        <mxCell id="4Kp6o3HMMt4SV7lr1U1g-7" value="KafkaProducer" style="rounded=0;whiteSpace=wrap;html=1;shadow=0;strokeWidth=1;" parent="1" vertex="1">
          <mxGeometry x="67.5" y="60" width="135" height="40" as="geometry" />
        </mxCell>
        <mxCell id="Mn85AuaeQ5H_NYyy6468-5" style="edgeStyle=orthogonalEdgeStyle;rounded=0;orthogonalLoop=1;jettySize=auto;html=1;entryX=0.5;entryY=0;entryDx=0;entryDy=0;" edge="1" parent="1" source="4Kp6o3HMMt4SV7lr1U1g-8" target="Mn85AuaeQ5H_NYyy6468-1">
          <mxGeometry relative="1" as="geometry" />
        </mxCell>
        <mxCell id="4Kp6o3HMMt4SV7lr1U1g-8" value="拦截器&lt;br&gt;ProducerInteceptors" style="rounded=0;whiteSpace=wrap;html=1;shadow=0;strokeWidth=1;" parent="1" vertex="1">
          <mxGeometry x="67.5" y="130" width="135" height="40" as="geometry" />
        </mxCell>
        <mxCell id="Mn85AuaeQ5H_NYyy6468-7" style="edgeStyle=orthogonalEdgeStyle;rounded=0;orthogonalLoop=1;jettySize=auto;html=1;" edge="1" parent="1" source="Mn85AuaeQ5H_NYyy6468-1" target="Mn85AuaeQ5H_NYyy6468-2">
          <mxGeometry relative="1" as="geometry" />
        </mxCell>
        <mxCell id="Mn85AuaeQ5H_NYyy6468-1" value="序列化器&lt;br&gt;Serializer" style="rounded=0;whiteSpace=wrap;html=1;shadow=0;strokeWidth=1;" vertex="1" parent="1">
          <mxGeometry x="67.5" y="200" width="135" height="40" as="geometry" />
        </mxCell>
        <mxCell id="Mn85AuaeQ5H_NYyy6468-2" value="分区器&lt;br&gt;Partitioner" style="rounded=0;whiteSpace=wrap;html=1;shadow=0;strokeWidth=1;" vertex="1" parent="1">
          <mxGeometry x="67.5" y="270" width="135" height="40" as="geometry" />
        </mxCell>
        <mxCell id="Mn85AuaeQ5H_NYyy6468-8" value="" style="rounded=0;whiteSpace=wrap;html=1;dashed=1;" vertex="1" parent="1">
          <mxGeometry x="50" y="420" width="390" height="220" as="geometry" />
        </mxCell>
        <mxCell id="Mn85AuaeQ5H_NYyy6468-10" value="消息累加器 RecordAccumulator" style="rounded=0;whiteSpace=wrap;html=1;dashed=1;strokeColor=none;" vertex="1" parent="1">
          <mxGeometry x="165" y="400" width="190" height="40" as="geometry" />
        </mxCell>
        <mxCell id="Mn85AuaeQ5H_NYyy6468-11" value="分区1&amp;nbsp;" style="rounded=0;whiteSpace=wrap;html=1;dashed=1;align=left;" vertex="1" parent="1">
          <mxGeometry x="75" y="450" width="340" height="40" as="geometry" />
        </mxCell>
        <mxCell id="Mn85AuaeQ5H_NYyy6468-12" value="ProducerBatch" style="rounded=0;whiteSpace=wrap;html=1;" vertex="1" parent="1">
          <mxGeometry x="160" y="455" width="120" height="30" as="geometry" />
        </mxCell>
        <mxCell id="Mn85AuaeQ5H_NYyy6468-13" value="&lt;span&gt;ProducerBatch&lt;/span&gt;" style="rounded=0;whiteSpace=wrap;html=1;" vertex="1" parent="1">
          <mxGeometry x="290" y="455" width="120" height="30" as="geometry" />
        </mxCell>
        <mxCell id="Mn85AuaeQ5H_NYyy6468-14" value="" style="endArrow=classic;html=1;entryX=0;entryY=0.5;entryDx=0;entryDy=0;" edge="1" parent="1" target="Mn85AuaeQ5H_NYyy6468-12">
          <mxGeometry width="50" height="50" relative="1" as="geometry">
            <mxPoint x="110" y="470" as="sourcePoint" />
            <mxPoint x="100" y="370" as="targetPoint" />
          </mxGeometry>
        </mxCell>
        <mxCell id="Mn85AuaeQ5H_NYyy6468-25" value="分区2&amp;nbsp;" style="rounded=0;whiteSpace=wrap;html=1;dashed=1;align=left;" vertex="1" parent="1">
          <mxGeometry x="75" y="510" width="340" height="40" as="geometry" />
        </mxCell>
        <mxCell id="Mn85AuaeQ5H_NYyy6468-26" value="ProducerBatch" style="rounded=0;whiteSpace=wrap;html=1;" vertex="1" parent="1">
          <mxGeometry x="160" y="515" width="120" height="30" as="geometry" />
        </mxCell>
        <mxCell id="Mn85AuaeQ5H_NYyy6468-28" value="" style="endArrow=classic;html=1;entryX=0;entryY=0.5;entryDx=0;entryDy=0;" edge="1" parent="1" target="Mn85AuaeQ5H_NYyy6468-26">
          <mxGeometry width="50" height="50" relative="1" as="geometry">
            <mxPoint x="110" y="530" as="sourcePoint" />
            <mxPoint x="100" y="430" as="targetPoint" />
          </mxGeometry>
        </mxCell>
        <mxCell id="Mn85AuaeQ5H_NYyy6468-29" value="分区3&amp;nbsp;" style="rounded=0;whiteSpace=wrap;html=1;dashed=1;align=left;" vertex="1" parent="1">
          <mxGeometry x="75" y="570" width="340" height="40" as="geometry" />
        </mxCell>
        <mxCell id="Mn85AuaeQ5H_NYyy6468-30" value="ProducerBatch" style="rounded=0;whiteSpace=wrap;html=1;" vertex="1" parent="1">
          <mxGeometry x="160" y="575" width="120" height="30" as="geometry" />
        </mxCell>
        <mxCell id="Mn85AuaeQ5H_NYyy6468-31" value="&lt;span&gt;ProducerBatch&lt;/span&gt;" style="rounded=0;whiteSpace=wrap;html=1;" vertex="1" parent="1">
          <mxGeometry x="290" y="575" width="120" height="30" as="geometry" />
        </mxCell>
        <mxCell id="Mn85AuaeQ5H_NYyy6468-32" value="" style="endArrow=classic;html=1;entryX=0;entryY=0.5;entryDx=0;entryDy=0;" edge="1" parent="1" target="Mn85AuaeQ5H_NYyy6468-30">
          <mxGeometry width="50" height="50" relative="1" as="geometry">
            <mxPoint x="110" y="590" as="sourcePoint" />
            <mxPoint x="100" y="490" as="targetPoint" />
          </mxGeometry>
        </mxCell>
        <mxCell id="Mn85AuaeQ5H_NYyy6468-33" value="" style="rounded=0;whiteSpace=wrap;html=1;dashed=1;" vertex="1" parent="1">
          <mxGeometry x="560" y="40" width="450" height="500" as="geometry" />
        </mxCell>
        <mxCell id="Mn85AuaeQ5H_NYyy6468-34" value="Sender 线程" style="rounded=0;whiteSpace=wrap;html=1;dashed=1;strokeColor=none;" vertex="1" parent="1">
          <mxGeometry x="725" y="20" width="120" height="40" as="geometry" />
        </mxCell>
        <mxCell id="Mn85AuaeQ5H_NYyy6468-35" value="Sender" style="rounded=0;whiteSpace=wrap;html=1;" vertex="1" parent="1">
          <mxGeometry x="710" y="70" width="150" height="30" as="geometry" />
        </mxCell>
        <mxCell id="Mn85AuaeQ5H_NYyy6468-36" value="创建 Request" style="rounded=0;whiteSpace=wrap;html=1;" vertex="1" parent="1">
          <mxGeometry x="710" y="130" width="150" height="30" as="geometry" />
        </mxCell>
      </root>
    </mxGraphModel>
  </diagram>
</mxfile>
